<svg width="41" height="26" viewBox="0 0 41 26" fill="none" xmlns="http://www.w3.org/2000/svg">
<path d="M39.3593 1.57373H2.36768V23.7687H39.3593V1.57373Z" stroke="#F5A31F" stroke-width="3" stroke-linecap="round" stroke-linejoin="round"/>
<path d="M39.3594 8.97206C38.3878 8.97206 37.4258 8.7807 36.5282 8.4089C35.6306 8.0371 34.815 7.49213 34.128 6.80514C33.4409 6.11814 32.896 5.30256 32.5243 4.40494C32.1525 3.50734 31.9611 2.5453 31.9611 1.57373H39.3594V8.97206Z" stroke="#F5A31F" stroke-width="3" stroke-linecap="round" stroke-linejoin="round"/>
<path d="M31.9611 23.7687C31.9611 21.8065 32.7405 19.9247 34.128 18.5373C35.5154 17.1498 37.3972 16.3704 39.3594 16.3704V23.7687H31.9611Z" stroke="#F5A31F" stroke-width="3" stroke-linecap="round" stroke-linejoin="round"/>
<path d="M2.36768 16.3704C4.32984 16.3704 6.21163 17.1498 7.59909 18.5373C8.98654 19.9247 9.766 21.8065 9.766 23.7687H2.36768V16.3704Z" stroke="#F5A31F" stroke-width="3" stroke-linecap="round" stroke-linejoin="round"/>
<path d="M9.766 1.57373C9.766 3.5359 8.98654 5.41768 7.59909 6.80514C6.21163 8.19259 4.32984 8.97206 2.36768 8.97206V1.57373H9.766Z" stroke="#F5A31F" stroke-width="3" stroke-linecap="round" stroke-linejoin="round"/>
<path d="M20.8635 16.3705C22.9065 16.3705 24.5626 14.7143 24.5626 12.6713C24.5626 10.6283 22.9065 8.97217 20.8635 8.97217C18.8205 8.97217 17.1643 10.6283 17.1643 12.6713C17.1643 14.7143 18.8205 16.3705 20.8635 16.3705Z" stroke="#F5A31F" stroke-width="3" stroke-linecap="round" stroke-linejoin="round"/>
</svg>
