<svg width="40" height="26" viewBox="0 0 40 26" fill="none" xmlns="http://www.w3.org/2000/svg">
<path d="M25.5376 0.0891113V2.86348H34.6735L22.7632 14.7737L16.808 8.81868C16.6793 8.68981 16.5264 8.58758 16.3581 8.51783C16.1898 8.44808 16.0095 8.41218 15.8273 8.41218C15.6451 8.41218 15.4648 8.44808 15.2965 8.51783C15.1282 8.58758 14.9753 8.68981 14.8465 8.81868L0.568237 23.0968L2.52986 25.0585L15.8273 11.761L21.7825 17.7161C21.9112 17.845 22.0641 17.9472 22.2324 18.0169C22.4007 18.0867 22.5811 18.1226 22.7632 18.1226C22.9454 18.1226 23.1258 18.0867 23.294 18.0169C23.4623 17.9472 23.6152 17.845 23.744 17.7161L36.6351 4.8251V13.961H39.4095V0.0891113H25.5376Z" fill="#F5A31F"/>
</svg>
