<svg width="29" height="38" viewBox="0 0 29 38" fill="none" xmlns="http://www.w3.org/2000/svg">
<path fill-rule="evenodd" clip-rule="evenodd" d="M6.78037 5.17524C4.76816 6.18134 4.18379 7.25045 4.18379 7.91572C4.18379 8.58099 4.76816 9.65009 6.78037 10.6562C8.68884 11.6104 11.4466 12.2507 14.5877 12.2507C17.7287 12.2507 20.4865 11.6104 22.395 10.6562C24.4071 9.65009 24.9916 8.58099 24.9916 7.91572C24.9916 7.25045 24.4071 6.18134 22.395 5.17524C20.4865 4.22102 17.7287 3.58076 14.5877 3.58076C11.4466 3.58076 8.68884 4.22102 6.78037 5.17524ZM24.9916 13.1719C24.6529 13.3845 24.3022 13.5799 23.9459 13.758C21.4614 15.0003 18.1502 15.7186 14.5877 15.7186C11.0252 15.7186 7.71402 15.0003 5.22945 13.758C4.87324 13.5799 4.52258 13.3845 4.18379 13.1719V15.4296C4.18379 16.2169 4.82575 17.3502 6.80948 18.3894C8.71108 19.3854 11.4582 20.0536 14.5877 20.0536C17.7172 20.0536 20.4643 19.3854 22.3659 18.3894C24.3495 17.3502 24.9916 16.2169 24.9916 15.4296V13.1719ZM28.4596 7.91572V15.4296C28.4596 15.5267 28.457 15.6232 28.4517 15.7186H28.4596V22.3656C28.4596 22.4627 28.457 22.5591 28.4517 22.6546H28.4596V29.3015C28.4596 32.0255 26.3843 34.0714 23.975 35.3332C21.4836 36.6383 18.1618 37.3934 14.5877 37.3934C11.0136 37.3934 7.69177 36.6383 5.20032 35.3332C2.79101 34.0714 0.71582 32.0255 0.71582 29.3015V22.6546H0.723658C0.718456 22.5591 0.71582 22.4627 0.71582 22.3656V15.7186H0.723658C0.718456 15.6232 0.71582 15.5267 0.71582 15.4296V7.91572C0.71582 5.22922 2.8486 3.26383 5.22945 2.0734C7.71402 0.831125 11.0252 0.112793 14.5877 0.112793C18.1502 0.112793 21.4614 0.831125 23.9459 2.0734C26.3268 3.26383 28.4596 5.22922 28.4596 7.91572ZM4.18379 27.8027V29.3015C4.18379 30.0887 4.82575 31.2221 6.80948 32.2613C8.71108 33.2573 11.4582 33.9255 14.5877 33.9255C17.7172 33.9255 20.4643 33.2573 22.3659 32.2613C24.3495 31.2221 24.9916 30.0887 24.9916 29.3015V27.8027C24.6633 28.017 24.3225 28.2153 23.975 28.3973C21.4836 29.7024 18.1618 30.4575 14.5877 30.4575C11.0136 30.4575 7.69177 29.7024 5.20032 28.3973C4.85278 28.2153 4.5122 28.017 4.18379 27.8027ZM23.975 21.4614C24.3225 21.2794 24.6633 21.081 24.9916 20.8667V22.3656C24.9916 23.1528 24.3495 24.2861 22.3659 25.3254C20.4643 26.3214 17.7172 26.9895 14.5877 26.9895C11.4582 26.9895 8.71108 26.3214 6.80948 25.3254C4.82575 24.2861 4.18379 23.1528 4.18379 22.3656V20.8667C4.5122 21.081 4.85278 21.2794 5.20032 21.4614C7.69177 22.7665 11.0136 23.5216 14.5877 23.5216C18.1618 23.5216 21.4836 22.7665 23.975 21.4614Z" fill="#F5A31F"/>
</svg>
