<svg width="42" height="43" viewBox="0 0 42 43" fill="none" xmlns="http://www.w3.org/2000/svg">
<path fill-rule="evenodd" clip-rule="evenodd" d="M7.44815 10.8077C10.6264 6.85858 15.5 4.33149 20.9638 4.33149C21.8077 4.33149 22.6372 4.39177 23.4487 4.50822L24.9233 7.4571L19.2798 13.1006L13.2108 13.9676L10.2364 16.942L7.44815 10.8077ZM5.2449 14.3413C4.20488 16.5678 3.62397 19.0516 3.62397 21.6713C3.62397 30.2129 9.80003 37.3121 17.93 38.7467L18.8805 37.2067L13.5995 29.8719L17.2048 25.1985L15.4906 24.3414L9.26582 25.3788L8.04831 20.5089L5.2449 14.3413ZM11.6132 20.4696L11.8537 21.4318L16.0329 20.7352L19.5133 22.4754L25.7783 21.6052L37.0422 28.1761C37.8558 26.1674 38.3036 23.9717 38.3036 21.6713C38.3036 14.5904 34.0593 8.50082 27.976 5.80783L29.1429 8.14186L20.9146 16.3702L14.8456 17.2372L11.6132 20.4696ZM35.4227 31.2461C32.4714 35.6939 27.5227 38.7014 21.856 38.9885L23.0471 37.0587L17.9242 29.9436L21.161 25.7478L25.0671 25.2054L35.4227 31.2461ZM20.9638 0.863525C9.47198 0.863525 0.156006 10.1795 0.156006 21.6713C0.156006 33.1632 9.47198 42.4791 20.9638 42.4791C32.4557 42.4791 41.7716 33.1632 41.7716 21.6713C41.7716 10.1795 32.4557 0.863525 20.9638 0.863525Z" fill="#F5A31F"/>
</svg>
